<?xml version="1.0"?>
<svg width="290" height="64" xmlns="http://www.w3.org/2000/svg" xmlns:svg="http://www.w3.org/2000/svg" xmlns:xlink="http://www.w3.org/1999/xlink" version="1.1">
 <g class="layer" display="inline">
  <title>Layer 1</title>
  <text fill="#ffffff" font-family="Fantasy" font-size="40" id="svg_1" stroke="#f4ebeb" stroke-width="0" style="cursor: move;" text-anchor="middle" textLength="0" x="176.91" xml:space="preserve" y="47.38">PrimeTracker</text>
  <use fill="#ffffff" id="svg_4" stroke="#ffffff" transform="matrix(1 0 0 1 0 0) matrix(1.10394 0 0 0.867635 -127.359 2.92447)" xlink:href="#svg_3"/>
 </g>
 <defs>
  <symbol data-name="Layer 1" id="svg_3" viewBox="0 0 107.86 122.88" xmlns="http://www.w3.org/2000/svg">
   <defs>
    <style>.cls-1{fill-rule:evenodd;}</style>
   </defs>
   <title>gps</title>
   <path class="cls-1" d="m86.07,81.78c13.22,4.16 21.79,10.81 21.79,18.31c0,12.59 -24.14,22.79 -53.93,22.79s-53.93,-10.2 -53.93,-22.79c0,-7.68 9,-14.47 22.73,-18.6c0.5,0.76 1,1.52 1.51,2.26q1.61,2.34 3.33,4.6c-9.62,2.58 -15.79,6.56 -15.79,11c0,7.78 18.67,14.09 41.71,14.09s41.7,-6.31 41.7,-14.09c0,-4.16 -5.34,-7.9 -13.84,-10.48c1.67,-2.29 3.24,-4.67 4.72,-7.12l0,0.03zm-14.42,2.71a70.47,70.47 0 0 1 -15.43,12.77a2.17,2.17 0 0 1 -2.48,0.08a87,87 0 0 1 -21.47,-19.15c-7.82,-9.81 -12.74,-20.69 -14.43,-31.19c-1.71,-10.6 -0.11,-20.82 5.16,-29.13a35.87,35.87 0 0 1 8,-8.87c7.47,-5.92 16,-9.06 24.47,-9a34.42,34.42 0 0 1 23.21,9.48a34.33,34.33 0 0 1 6.2,7.52c5.68,9.37 6.91,21.31 4.41,33.41a73.54,73.54 0 0 1 -17.64,34l0,0l0,0.08zm-17.8,-65.6a18.25,18.25 0 1 1 -18.25,18.25a18.24,18.24 0 0 1 18.25,-18.25z" id="svg_2"/>
  </symbol>
 </defs>
</svg>